<?xml version="1.0" standalone="no"?>
<!DOCTYPE svg PUBLIC "-//W3C//DTD SVG 20010904//EN"
 "http://www.w3.org/TR/2001/REC-SVG-20010904/DTD/svg10.dtd">
<svg version="1.0" xmlns="http://www.w3.org/2000/svg"
 width="200" height="50" viewBox="0 0 2927.000000 724.000000"
 preserveAspectRatio="xMidYMid meet">

<g transform="translate(0.000000,724.000000) scale(0.100000,-0.100000)"
fill="#404040" stroke="none">
<path d="M17160 3615 l0 -3615 150 0 150 0 0 3615 0 3615 -150 0 -150 0 0
-3615z"/>
<path d="M2215 6270 c-315 -18 -624 -78 -905 -175 -390 -136 -745 -405 -961
-728 -252 -377 -349 -732 -336 -1237 8 -303 48 -481 158 -702 172 -344 423
-596 789 -791 398 -213 921 -310 1550 -286 293 11 472 31 770 85 128 23 571
122 578 129 2 2 -1 43 -7 92 -15 125 -13 717 4 1048 13 255 17 303 31 373 l4
22 -450 0 -450 0 0 -27 c0 -16 7 -86 15 -158 36 -314 40 -1081 6 -1144 -22
-41 -149 -71 -411 -97 -368 -37 -645 6 -903 138 -242 124 -436 326 -570 594
-230 458 -237 1117 -18 1623 205 473 569 780 1045 883 133 29 411 31 556 5
202 -37 398 -117 548 -223 76 -55 242 -212 287 -273 27 -36 35 -41 72 -41 41
0 42 1 53 43 7 23 41 147 76 275 35 128 64 237 64 242 0 22 -278 142 -472 205
-243 79 -418 109 -716 125 -201 11 -211 11 -407 0z"/>
<path d="M19070 3615 l0 -2565 5095 0 5095 0 0 2565 0 2565 -5095 0 -5095 0 0
-2565z m2517 2060 c120 -36 217 -160 229 -295 14 -151 -65 -314 -345 -709
l-130 -184 26 -46 c96 -167 188 -310 357 -551 386 -550 448 -655 501 -835 48
-167 44 -369 -11 -462 -77 -132 -353 -232 -479 -174 -61 28 -122 77 -149 118
-16 23 -41 99 -65 193 -66 259 -116 360 -402 810 -97 151 -192 303 -213 338
l-37 62 -48 -52 c-207 -227 -241 -270 -241 -301 0 -18 7 -108 16 -202 8 -93
17 -314 20 -490 4 -289 8 -340 35 -530 35 -240 35 -305 -4 -380 -66 -129 -211
-209 -377 -208 -94 1 -145 14 -207 56 -87 58 -109 130 -163 536 -15 115 -20
209 -20 380 0 124 -5 309 -10 410 -11 179 -12 185 -45 250 -74 147 -84 274
-32 414 l25 68 -14 137 c-18 169 -72 553 -125 891 -30 188 -39 268 -34 305 17
123 78 217 176 271 50 28 62 30 154 30 89 0 106 -3 157 -28 71 -35 131 -101
159 -176 21 -57 65 -302 115 -641 15 -102 28 -186 30 -188 7 -10 287 320 406
479 94 125 192 275 303 462 73 125 113 173 175 212 73 46 175 57 267 30z
m4088 -224 c116 -54 195 -158 195 -258 0 -13 -23 -93 -51 -180 -78 -244 -107
-396 -164 -883 -14 -118 -32 -255 -41 -305 -21 -125 -137 -524 -233 -804 l-80
-234 347 -87 c388 -98 478 -125 568 -176 135 -75 204 -205 184 -344 -21 -146
-99 -254 -226 -312 -40 -19 -66 -23 -139 -22 -81 0 -106 5 -247 51 -194 64
-509 144 -857 218 -145 31 -288 67 -317 80 -64 28 -139 95 -166 149 -37 72
-33 232 7 276 13 14 47 98 157 385 27 72 112 346 189 610 l140 480 79 500 c98
619 113 674 203 772 81 88 170 124 297 120 72 -2 96 -8 155 -36z m-2868 -131
c58 -25 106 -70 127 -121 8 -20 24 -92 36 -160 37 -226 75 -335 313 -917 18
-46 38 -82 43 -81 5 1 186 182 401 403 216 221 409 413 430 429 48 35 92 47
179 47 214 0 382 -159 361 -341 -7 -59 -43 -134 -98 -203 -69 -87 -551 -586
-821 -850 l-257 -251 -51 -335 c-28 -184 -73 -489 -100 -677 -36 -247 -55
-354 -69 -382 -25 -49 -122 -137 -181 -164 -35 -16 -66 -21 -135 -22 -77 0
-98 4 -147 27 -77 36 -150 106 -178 171 -19 44 -22 63 -17 127 10 127 76 655
107 850 l30 185 -25 78 c-34 107 -34 204 0 290 l25 63 -40 127 c-22 70 -79
220 -127 334 -47 115 -114 276 -148 358 -121 294 -178 504 -179 665 -1 83 2
102 26 152 45 96 151 185 257 215 63 18 176 10 238 -17z m5560 -105 c136 -67
198 -195 159 -330 -23 -79 -199 -447 -477 -1002 l-236 -472 18 -123 c11 -68
62 -359 115 -648 111 -602 113 -626 63 -721 -39 -73 -115 -138 -199 -170 -80
-30 -205 -24 -283 15 -62 30 -130 100 -146 149 -13 38 -174 877 -191 992 -11
69 -17 85 -50 123 -21 24 -53 78 -71 120 -29 68 -33 87 -31 161 l1 84 -68 91
c-83 112 -184 235 -356 431 -224 255 -327 388 -408 523 -132 221 -154 342 -88
477 55 111 165 194 288 217 81 15 143 4 200 -36 41 -28 58 -52 118 -162 102
-188 117 -212 202 -322 96 -122 444 -532 453 -532 4 0 123 235 265 523 155
314 270 535 289 555 98 105 285 129 433 57z"/>
<path d="M11400 5120 c-175 -37 -307 -106 -423 -223 -75 -75 -118 -136 -169
-237 l-37 -75 0 120 c0 66 6 167 14 225 8 58 15 113 15 123 0 16 -26 17 -400
17 l-400 0 0 -22 c0 -13 10 -219 21 -458 26 -553 37 -1978 20 -2565 -20 -693
-30 -979 -37 -1023 l-6 -42 437 0 438 0 -7 58 c-25 226 -45 864 -46 1445 0
291 2 302 49 216 14 -24 59 -78 100 -119 162 -161 414 -233 729 -208 447 34
737 257 917 703 96 239 139 567 116 887 -18 242 -56 402 -141 585 -128 276
-363 488 -625 563 -180 52 -408 64 -565 30z m124 -353 c170 -78 295 -309 336
-622 30 -232 23 -648 -16 -870 -70 -408 -299 -636 -586 -587 -105 18 -169 52
-242 124 -99 101 -162 244 -202 463 -26 143 -27 627 -1 797 60 396 199 631
422 711 76 27 211 20 289 -16z"/>
<path d="M14285 5125 c-322 -52 -592 -189 -797 -403 -97 -102 -166 -204 -239
-356 -100 -208 -140 -408 -141 -691 -1 -267 33 -445 117 -622 218 -460 666
-705 1293 -704 623 0 1056 247 1282 734 198 428 195 1006 -8 1401 -173 337
-475 548 -896 627 -148 28 -479 35 -611 14z m468 -278 c127 -63 213 -187 271
-392 53 -188 61 -262 61 -625 0 -373 -13 -515 -65 -728 -79 -324 -211 -488
-419 -524 -149 -25 -291 19 -391 121 -181 185 -250 459 -250 984 0 507 78 847
237 1041 57 70 107 108 188 142 54 22 71 24 176 22 110 -3 118 -5 192 -41z"/>
<path d="M6100 5105 c-161 -33 -268 -92 -391 -214 -109 -109 -189 -224 -269
-390 -30 -61 -58 -111 -63 -111 -9 0 -1 502 9 613 l5 57 -399 0 -398 0 7 -72
c24 -228 31 -449 36 -1043 6 -663 -5 -1131 -30 -1408 l-12 -127 433 0 433 0
-5 33 c-22 136 -54 1156 -43 1383 9 191 59 307 180 420 109 102 224 144 392
144 85 0 112 -5 185 -31 47 -16 92 -32 100 -34 8 -3 25 4 38 14 21 19 22 28
32 278 5 142 12 313 15 381 l6 122 -98 -1 c-54 0 -127 -7 -163 -14z"/>
<path d="M6795 4993 c28 -378 34 -841 16 -1183 -23 -414 -10 -726 35 -893 24
-88 87 -222 135 -284 46 -59 158 -148 234 -186 110 -54 235 -85 385 -96 270
-21 502 36 694 169 70 48 213 188 268 260 14 19 29 32 33 28 3 -3 2 -72 -4
-151 -6 -80 -11 -166 -11 -191 l0 -46 413 0 412 0 -12 132 c-6 73 -17 368 -24
656 -10 425 -10 619 0 1045 7 287 18 586 24 665 l12 142 -433 0 -432 0 5 -37
c44 -316 59 -1471 21 -1689 -42 -247 -128 -400 -263 -471 -80 -42 -153 -57
-259 -51 -129 7 -192 34 -275 117 -73 74 -108 137 -141 256 -20 75 -22 105
-26 485 -4 502 24 1240 53 1368 l5 22 -435 0 -435 0 5 -67z"/>
</g>
</svg>
